<svg xmlns="http://www.w3.org/2000/svg" viewBox="0 0 100 100" role="img" aria-label="Fluch-Rahmen">
<title>Fluch-Rahmen</title>
<circle cx="50" cy="50" r="46" fill="none" stroke="#23281f" stroke-width="7"/>
<circle cx="50" cy="50" r="46" fill="none" stroke="#6f7a5e" stroke-width="3"/>
<g transform="translate(58.97,4.88) rotate(11.2)"><rect x="-1.5" y="-2.6" width="3" height="5.2" rx="1.5" fill="#cfd0b8" stroke="#4a4f3c" stroke-width=".7"/></g>
<g transform="translate(75.56,11.75) rotate(33.8)"><rect x="-1.5" y="-2.6" width="3" height="5.2" rx="1.5" fill="#cfd0b8" stroke="#4a4f3c" stroke-width=".7"/></g>
<g transform="translate(88.25,24.44) rotate(56.2)"><rect x="-1.5" y="-2.6" width="3" height="5.2" rx="1.5" fill="#cfd0b8" stroke="#4a4f3c" stroke-width=".7"/></g>
<g transform="translate(95.12,41.03) rotate(78.8)"><rect x="-1.5" y="-2.6" width="3" height="5.2" rx="1.5" fill="#cfd0b8" stroke="#4a4f3c" stroke-width=".7"/></g>
<g transform="translate(95.12,58.97) rotate(101.2)"><rect x="-1.5" y="-2.6" width="3" height="5.2" rx="1.5" fill="#cfd0b8" stroke="#4a4f3c" stroke-width=".7"/></g>
<g transform="translate(88.25,75.56) rotate(123.8)"><rect x="-1.5" y="-2.6" width="3" height="5.2" rx="1.5" fill="#cfd0b8" stroke="#4a4f3c" stroke-width=".7"/></g>
<g transform="translate(75.56,88.25) rotate(146.2)"><rect x="-1.5" y="-2.6" width="3" height="5.2" rx="1.5" fill="#cfd0b8" stroke="#4a4f3c" stroke-width=".7"/></g>
<g transform="translate(58.97,95.12) rotate(168.8)"><rect x="-1.5" y="-2.6" width="3" height="5.2" rx="1.5" fill="#cfd0b8" stroke="#4a4f3c" stroke-width=".7"/></g>
<g transform="translate(41.03,95.12) rotate(191.2)"><rect x="-1.5" y="-2.6" width="3" height="5.2" rx="1.5" fill="#cfd0b8" stroke="#4a4f3c" stroke-width=".7"/></g>
<g transform="translate(24.44,88.25) rotate(213.8)"><rect x="-1.5" y="-2.6" width="3" height="5.2" rx="1.5" fill="#cfd0b8" stroke="#4a4f3c" stroke-width=".7"/></g>
<g transform="translate(11.75,75.56) rotate(236.2)"><rect x="-1.5" y="-2.6" width="3" height="5.2" rx="1.5" fill="#cfd0b8" stroke="#4a4f3c" stroke-width=".7"/></g>
<g transform="translate(4.88,58.97) rotate(258.8)"><rect x="-1.5" y="-2.6" width="3" height="5.2" rx="1.5" fill="#cfd0b8" stroke="#4a4f3c" stroke-width=".7"/></g>
<g transform="translate(4.88,41.03) rotate(281.2)"><rect x="-1.5" y="-2.6" width="3" height="5.2" rx="1.5" fill="#cfd0b8" stroke="#4a4f3c" stroke-width=".7"/></g>
<g transform="translate(11.75,24.44) rotate(303.8)"><rect x="-1.5" y="-2.6" width="3" height="5.2" rx="1.5" fill="#cfd0b8" stroke="#4a4f3c" stroke-width=".7"/></g>
<g transform="translate(24.44,11.75) rotate(326.2)"><rect x="-1.5" y="-2.6" width="3" height="5.2" rx="1.5" fill="#cfd0b8" stroke="#4a4f3c" stroke-width=".7"/></g>
<g transform="translate(41.03,4.88) rotate(348.8)"><rect x="-1.5" y="-2.6" width="3" height="5.2" rx="1.5" fill="#cfd0b8" stroke="#4a4f3c" stroke-width=".7"/></g>
<g transform="translate(82.53,17.47) rotate(45)"><path d="M0 -6.2 Q6.2 -6.2 6.2 0 Q6.2 4.4 3.4 5.8 L3.4 7.6 L-3.4 7.6 L-3.4 5.8 Q-6.2 4.4 -6.2 0 Q-6.2 -6.2 0 -6.2 Z" fill="#e8e2d0" stroke="#3a3f2e" stroke-width="1.1"/><circle cx="-2.4" cy="-.4" r="1.8" fill="#2c3a30"/><circle cx="2.4" cy="-.4" r="1.8" fill="#2c3a30"/><path d="M-1.6 4.2 L1.6 4.2" stroke="#3a3f2e" stroke-width=".9" stroke-linecap="round"/></g>
<g transform="translate(82.53,82.53) rotate(135)"><path d="M0 -6.2 Q6.2 -6.2 6.2 0 Q6.2 4.4 3.4 5.8 L3.4 7.6 L-3.4 7.6 L-3.4 5.8 Q-6.2 4.4 -6.2 0 Q-6.2 -6.2 0 -6.2 Z" fill="#e8e2d0" stroke="#3a3f2e" stroke-width="1.1"/><circle cx="-2.4" cy="-.4" r="1.8" fill="#2c3a30"/><circle cx="2.4" cy="-.4" r="1.8" fill="#2c3a30"/><path d="M-1.6 4.2 L1.6 4.2" stroke="#3a3f2e" stroke-width=".9" stroke-linecap="round"/></g>
<g transform="translate(17.47,82.53) rotate(225)"><path d="M0 -6.2 Q6.2 -6.2 6.2 0 Q6.2 4.4 3.4 5.8 L3.4 7.6 L-3.4 7.6 L-3.4 5.8 Q-6.2 4.4 -6.2 0 Q-6.2 -6.2 0 -6.2 Z" fill="#e8e2d0" stroke="#3a3f2e" stroke-width="1.1"/><circle cx="-2.4" cy="-.4" r="1.8" fill="#2c3a30"/><circle cx="2.4" cy="-.4" r="1.8" fill="#2c3a30"/><path d="M-1.6 4.2 L1.6 4.2" stroke="#3a3f2e" stroke-width=".9" stroke-linecap="round"/></g>
<g transform="translate(17.47,17.47) rotate(315)"><path d="M0 -6.2 Q6.2 -6.2 6.2 0 Q6.2 4.4 3.4 5.8 L3.4 7.6 L-3.4 7.6 L-3.4 5.8 Q-6.2 4.4 -6.2 0 Q-6.2 -6.2 0 -6.2 Z" fill="#e8e2d0" stroke="#3a3f2e" stroke-width="1.1"/><circle cx="-2.4" cy="-.4" r="1.8" fill="#2c3a30"/><circle cx="2.4" cy="-.4" r="1.8" fill="#2c3a30"/><path d="M-1.6 4.2 L1.6 4.2" stroke="#3a3f2e" stroke-width=".9" stroke-linecap="round"/></g>
</svg>
