<svg xmlns="http://www.w3.org/2000/svg" viewBox="0 0 100 100" role="img" aria-label="Tauwerk-Rahmen">
<title>Tauwerk-Rahmen</title>
<circle cx="50" cy="50" r="46.5" fill="none" stroke="#7d5c2e" stroke-width="6"/>
<line x1="47.4" y1="6.28" x2="52.92" y2="0.89" stroke="#d8b878" stroke-width="2.4" stroke-linecap="round"/>
<line x1="55.48" y1="6.54" x2="61.89" y2="2.26" stroke="#d8b878" stroke-width="2.4" stroke-linecap="round"/>
<line x1="63.37" y1="8.29" x2="70.46" y2="5.26" stroke="#d8b878" stroke-width="2.4" stroke-linecap="round"/>
<line x1="70.81" y1="11.46" x2="78.34" y2="9.78" stroke="#d8b878" stroke-width="2.4" stroke-linecap="round"/>
<line x1="77.54" y1="15.94" x2="85.24" y2="15.67" stroke="#d8b878" stroke-width="2.4" stroke-linecap="round"/>
<line x1="83.33" y1="21.58" x2="90.95" y2="22.73" stroke="#d8b878" stroke-width="2.4" stroke-linecap="round"/>
<line x1="87.98" y1="28.19" x2="95.27" y2="30.72" stroke="#d8b878" stroke-width="2.4" stroke-linecap="round"/>
<line x1="91.34" y1="35.54" x2="98.04" y2="39.37" stroke="#d8b878" stroke-width="2.4" stroke-linecap="round"/>
<line x1="93.3" y1="43.38" x2="99.17" y2="48.37" stroke="#d8b878" stroke-width="2.4" stroke-linecap="round"/>
<line x1="93.78" y1="51.45" x2="98.63" y2="57.44" stroke="#d8b878" stroke-width="2.4" stroke-linecap="round"/>
<line x1="92.76" y1="59.47" x2="96.44" y2="66.25" stroke="#d8b878" stroke-width="2.4" stroke-linecap="round"/>
<line x1="90.3" y1="67.16" x2="92.66" y2="74.5" stroke="#d8b878" stroke-width="2.4" stroke-linecap="round"/>
<line x1="86.46" y1="74.28" x2="87.43" y2="81.93" stroke="#d8b878" stroke-width="2.4" stroke-linecap="round"/>
<line x1="81.38" y1="80.56" x2="80.93" y2="88.26" stroke="#d8b878" stroke-width="2.4" stroke-linecap="round"/>
<line x1="75.23" y1="85.81" x2="73.37" y2="93.29" stroke="#d8b878" stroke-width="2.4" stroke-linecap="round"/>
<line x1="68.22" y1="89.83" x2="65.02" y2="96.85" stroke="#d8b878" stroke-width="2.4" stroke-linecap="round"/>
<line x1="60.59" y1="92.5" x2="56.16" y2="98.81" stroke="#d8b878" stroke-width="2.4" stroke-linecap="round"/>
<line x1="52.6" y1="93.72" x2="47.08" y2="99.11" stroke="#d8b878" stroke-width="2.4" stroke-linecap="round"/>
<line x1="44.52" y1="93.46" x2="38.11" y2="97.74" stroke="#d8b878" stroke-width="2.4" stroke-linecap="round"/>
<line x1="36.63" y1="91.71" x2="29.54" y2="94.74" stroke="#d8b878" stroke-width="2.4" stroke-linecap="round"/>
<line x1="29.19" y1="88.54" x2="21.66" y2="90.22" stroke="#d8b878" stroke-width="2.4" stroke-linecap="round"/>
<line x1="22.46" y1="84.06" x2="14.76" y2="84.33" stroke="#d8b878" stroke-width="2.4" stroke-linecap="round"/>
<line x1="16.67" y1="78.42" x2="9.05" y2="77.27" stroke="#d8b878" stroke-width="2.4" stroke-linecap="round"/>
<line x1="12.02" y1="71.81" x2="4.73" y2="69.28" stroke="#d8b878" stroke-width="2.4" stroke-linecap="round"/>
<line x1="8.66" y1="64.46" x2="1.96" y2="60.63" stroke="#d8b878" stroke-width="2.4" stroke-linecap="round"/>
<line x1="6.7" y1="56.62" x2="0.83" y2="51.63" stroke="#d8b878" stroke-width="2.4" stroke-linecap="round"/>
<line x1="6.22" y1="48.55" x2="1.37" y2="42.56" stroke="#d8b878" stroke-width="2.4" stroke-linecap="round"/>
<line x1="7.24" y1="40.53" x2="3.56" y2="33.75" stroke="#d8b878" stroke-width="2.4" stroke-linecap="round"/>
<line x1="9.7" y1="32.84" x2="7.34" y2="25.5" stroke="#d8b878" stroke-width="2.4" stroke-linecap="round"/>
<line x1="13.54" y1="25.72" x2="12.57" y2="18.07" stroke="#d8b878" stroke-width="2.4" stroke-linecap="round"/>
<line x1="18.62" y1="19.44" x2="19.07" y2="11.74" stroke="#d8b878" stroke-width="2.4" stroke-linecap="round"/>
<line x1="24.77" y1="14.19" x2="26.63" y2="6.71" stroke="#d8b878" stroke-width="2.4" stroke-linecap="round"/>
<line x1="31.78" y1="10.17" x2="34.98" y2="3.15" stroke="#d8b878" stroke-width="2.4" stroke-linecap="round"/>
<line x1="39.41" y1="7.5" x2="43.84" y2="1.19" stroke="#d8b878" stroke-width="2.4" stroke-linecap="round"/>
<circle cx="50" cy="50" r="43.4" fill="none" stroke="#5f4520" stroke-width="1.1"/>
<circle cx="50" cy="50" r="49.4" fill="none" stroke="#5f4520" stroke-width="1.1"/>
<g transform="translate(50,96.5)"><ellipse rx="7.2" ry="5" fill="#c9a45f" stroke="#5f4520" stroke-width="1.2"/><path d="M-5.4 -1.4 Q0 2.6 5.4 -1.4" fill="none" stroke="#5f4520" stroke-width="1.3" stroke-linecap="round"/><path d="M-5.4 1.6 Q0 -2.4 5.4 1.6" fill="none" stroke="#5f4520" stroke-width="1.3" stroke-linecap="round"/></g>
</svg>
